<svg width="32" height="32" viewBox="0 0 32 32" fill="none" xmlns="http://www.w3.org/2000/svg">
<path d="M6.32081 22.7851C6.57396 25.9738 9.09889 28.6814 12.3534 29.0824C13.5501 29.2298 14.7669 29.3334 16 29.3334C17.2329 29.3334 18.4497 29.2298 19.6465 29.0824C22.9011 28.6814 25.4259 25.9738 25.6791 22.7851C25.8545 20.5756 26 18.3094 26 16C26 13.6907 25.8545 11.4244 25.6791 9.21493C25.4259 6.02622 22.9011 3.31859 19.6465 2.91762C18.4497 2.77018 17.2329 2.66669 16 2.66669C14.7669 2.66669 13.5501 2.77018 12.3534 2.91762C9.09889 3.31859 6.57396 6.02622 6.32081 9.21493C6.14537 11.4244 6 13.6907 6 16C6 18.3094 6.14537 20.5756 6.32081 22.7851Z" stroke="#FBF6E8" stroke-width="2"/>
<path d="M16 8V12" stroke="#FBF6E8" stroke-width="2" stroke-linecap="round" stroke-linejoin="round"/>
</svg>
